<svg width="49" height="49" viewBox="0 0 49 49" fill="none" xmlns="http://www.w3.org/2000/svg">
<path d="M20.9435 0.197581C20.8118 5.26882 19.3629 9.61559 16.5968 13.2379L8.89113 5.53226C12.3817 2.63441 16.3992 0.856183 20.9435 0.197581ZM24.5 21.1411L19.9556 16.5968C23.7097 11.9866 25.6196 6.4543 25.6855 0C31.1519 0.263441 35.9597 2.10753 40.1089 5.53226L24.5 21.1411ZM5.53226 8.89113L13.2379 16.5968C9.61559 19.3629 5.26882 20.8118 0.197581 20.9435C0.856183 16.3992 2.63441 12.3817 5.53226 8.89113ZM32.4032 29.0444L27.8589 24.5L43.4677 8.89113C46.8925 13.0403 48.7366 17.8481 49 23.3145C42.5457 23.4462 37.0134 25.3562 32.4032 29.0444ZM24.5 27.8589L29.0444 32.4032C25.3562 37.0134 23.4462 42.5457 23.3145 49C17.8481 48.7366 13.0403 46.8925 8.89113 43.4677L24.5 27.8589ZM43.4677 40.1089L35.7621 32.4032C39.3844 29.6371 43.7312 28.1882 48.8024 28.0565C48.1438 32.6008 46.3656 36.6183 43.4677 40.1089ZM16.5968 19.9556L21.1411 24.5L5.53226 40.1089C2.10753 35.9597 0.263441 31.1519 0 25.6855C6.4543 25.6196 11.9866 23.7097 16.5968 19.9556ZM28.0565 48.8024C28.1882 43.7312 29.6371 39.3844 32.4032 35.7621L40.1089 43.4677C36.6183 46.3656 32.6008 48.1438 28.0565 48.8024Z" fill="#4D4D4D"/>
</svg>
