<svg width="48" height="48" viewBox="0 0 48 48" fill="none" xmlns="http://www.w3.org/2000/svg">
<path d="M48 1.48547V29.6274H0V1.48547H48ZM28.8803 20.639L30.8692 22.6278L37.9416 15.5555L30.8692 8.48306L28.8803 10.4719L33.9639 15.5555L28.8803 20.639ZM24.2532 24.0365L27.0118 23.4877L23.7469 7.07418L20.9883 7.6229L24.2532 24.0365ZM17.1308 22.6278L19.1197 20.639L14.0361 15.5555L19.1197 10.4719L17.1308 8.48306L10.0584 15.5555L17.1308 22.6278Z" fill="#4D4D4D"/>
<path d="M0 40.8847V32.4401H48V40.8847H32.5939V43.7018H35.4097V46.5145H12.5902V43.7018H15.4062V40.8847H0Z" fill="#4D4D4D"/>
</svg>
