<svg width="50" height="50" viewBox="0 0 50 50" fill="none" xmlns="http://www.w3.org/2000/svg">
<path d="M0.531128 26.1888L7.40778 29.0286L5.94934 29.7083C5.53933 29.9174 5.35772 30.4045 5.53933 30.8282L7.5206 35.0852C7.61691 35.2943 7.79578 35.4594 8.01041 35.5365C8.2223 35.6273 8.46445 35.6273 8.67634 35.5365L23.7505 28.4672L23.9404 26.4612L24.2045 23.7782C24.2348 23.4205 24.5512 23.1591 24.9062 23.1921C25.1374 23.2114 25.3383 23.3544 25.4346 23.5691C25.4896 23.6681 25.5144 23.7837 25.5061 23.8993L23.7587 42.4131C24.1495 42.6993 24.6393 42.8039 25.1126 42.7131C25.7785 42.537 26.3702 41.7582 26.86 40.4759L33.8522 19.6671L34.0531 19.0755C34.1549 18.7287 34.5181 18.5306 34.8676 18.6324C35.2143 18.737 35.4124 19.1002 35.3106 19.4469C35.3024 19.4635 35.2996 19.48 35.2941 19.4937L34.6117 21.4888L33.8439 23.7782L45.649 18.2472C49.0584 16.6539 50.8113 13.4288 49.6335 10.9137C48.9649 9.5984 47.6853 8.70408 46.2186 8.52796C44.5896 8.28306 42.9248 8.53897 41.4443 9.26268L28.0763 15.5009L13.7258 9.89834C11.9179 9.21865 10.4842 9.23517 9.47985 9.96163C8.63782 10.6523 8.15901 11.6925 8.17827 12.7849C8.18653 13.0574 8.32687 13.316 8.55251 13.4729L18.2194 20.0964L12.6774 22.7188L3.38746 20.3936C3.00771 20.3027 2.61146 20.4734 2.41884 20.8118L0.112861 24.956C-0.12379 25.377 0.0248045 25.9081 0.445824 26.1447C0.473341 26.1612 0.503611 26.175 0.531128 26.1888Z" fill="#4D4D4D"/>
</svg>
