<svg width="141" height="141" viewBox="0 0 141 141" fill="none" xmlns="http://www.w3.org/2000/svg">
<rect x="1" y="1" width="139" height="139" rx="3" fill="white"/>
<rect x="0.5" y="0.5" width="140" height="140" rx="3.5" stroke="black" stroke-opacity="0.5"/>
<path d="M77.7539 36.5254C79.349 36.5254 80.6478 36.9811 81.6504 37.8926C82.6986 38.7585 83.1543 40.3535 83.0176 42.6777C82.972 43.4525 82.7897 44.9108 82.4707 47.0527C82.1517 49.1491 81.7643 51.6328 81.3086 54.5039C80.8529 57.375 80.3288 60.474 79.7363 63.8008C79.1895 67.082 78.6654 70.2949 78.1641 73.4395H79.5996C80.0553 73.4395 80.5566 73.4167 81.1035 73.3711C81.6504 73.3255 82.2201 73.2572 82.8125 73.166C82.5846 73.7129 82.334 74.237 82.0605 74.7383C81.7871 75.194 81.5137 75.6042 81.2402 75.9688C80.9212 76.3789 80.6022 76.7435 80.2832 77.0625C79.873 77.5638 79.3945 78.0195 78.8477 78.4297C78.3008 78.7943 77.7767 79.0905 77.2754 79.3184C76.9564 81.5514 76.6829 83.5566 76.4551 85.334C76.2728 87.0658 76.1589 88.5013 76.1133 89.6406C76.0221 91.3724 76.0677 92.9902 76.25 94.4941C76.3867 95.8158 76.6602 97.1602 77.0703 98.5273C77.4805 99.8945 78.1413 100.988 79.0527 101.809L71.123 104.406C70.5762 103.632 70.166 102.583 69.8926 101.262C69.6647 99.9857 69.5052 98.7096 69.4141 97.4336C69.2773 95.9297 69.2546 94.3802 69.3457 92.7852C69.4368 91.1901 69.6875 89.1165 70.0977 86.5645C70.5078 83.9668 70.9635 81.1413 71.4648 78.0879C70.5534 77.8145 69.5508 77.5866 68.457 77.4043C67.4089 77.222 66.224 77.1309 64.9023 77.1309C63.7174 77.1309 62.4642 77.1764 61.1426 77.2676C59.8665 77.3587 58.5905 77.4727 57.3145 77.6094C56.7676 79.6146 56.2207 81.7337 55.6738 83.9668C55.0814 86.3822 54.5345 88.4329 54.0332 90.1191C53.5775 91.8509 53.1217 93.2865 52.666 94.4258C52.2559 95.5651 51.8229 96.4766 51.3672 97.1602C50.957 97.8438 50.5013 98.3451 50 98.6641C49.4531 98.9375 48.7695 99.1882 47.9492 99.416C47.1745 99.6439 46.1947 99.8717 45.0098 100.1C43.8249 100.327 42.2982 100.51 40.4297 100.646C41.1133 99.8262 41.7057 99.0742 42.207 98.3906C42.7083 97.707 43.2096 96.8639 43.7109 95.8613C44.2122 94.8587 44.7819 93.5599 45.4199 91.9648C46.0124 90.4154 46.7871 88.3646 47.7441 85.8125C48.1543 84.7643 48.5645 83.625 48.9746 82.3945C49.4303 81.1185 49.9089 79.8197 50.4102 78.498C48.7695 78.7259 47.3796 78.931 46.2402 79.1133C45.1009 79.2956 44.4173 79.4323 44.1895 79.5234C43.8249 79.569 43.5286 79.569 43.3008 79.5234C42.7083 79.4323 42.3893 79.1361 42.3438 78.6348C42.3893 77.9967 42.6172 77.5638 43.0273 77.3359C43.3919 77.1081 43.9616 76.8346 44.7363 76.5156C45.1009 76.3333 45.944 76.0143 47.2656 75.5586C48.5417 75.0573 50.1139 74.5332 51.9824 73.9863C52.666 72.0723 53.3268 70.181 53.9648 68.3125C54.6484 66.3984 55.3092 64.5755 55.9473 62.8438C56.5853 61.112 57.2005 59.4941 57.793 57.9902C58.3854 56.4408 58.9323 55.1191 59.4336 54.0254C60.2083 52.3392 61.1882 50.4935 62.373 48.4883C63.6035 46.4375 64.9935 44.5234 66.543 42.7461C68.138 40.9688 69.8698 39.4876 71.7383 38.3027C73.6523 37.1178 75.6576 36.5254 77.7539 36.5254ZM77.002 50.7441C77.5033 48.6934 77.8451 47.0072 78.0273 45.6855C78.2096 44.3639 78.278 43.3385 78.2324 42.6094C78.1868 41.8346 78.0273 41.3105 77.7539 41.0371C77.526 40.7181 77.2298 40.5586 76.8652 40.5586C76.2728 40.5586 75.5436 40.7865 74.6777 41.2422C73.8118 41.6979 72.9004 42.3587 71.9434 43.2246C70.9863 44.0449 70.0293 45.0931 69.0723 46.3691C68.1608 47.5996 67.3405 49.0124 66.6113 50.6074C65.5632 52.9772 64.3783 55.8939 63.0566 59.3574C61.735 62.7754 60.2995 67.1504 58.75 72.4824C59.6615 72.3457 60.5501 72.2318 61.416 72.1406C62.3275 72.0495 63.2161 72.0039 64.082 72.0039C65.6315 72.0039 67.1126 72.0723 68.5254 72.209C69.9382 72.3001 71.237 72.4141 72.4219 72.5508C72.832 70.3633 73.2422 68.2214 73.6523 66.125C74.1081 63.9831 74.541 61.9551 74.9512 60.041C75.3613 58.127 75.7259 56.3724 76.0449 54.7773C76.4095 53.1823 76.7285 51.8379 77.002 50.7441Z" fill="#4D4D4D"/>
<path d="M98.6602 72.2578C98.7904 72.9349 98.9466 73.5469 99.1289 74.0938C99.3112 74.6406 99.4284 75.2396 99.4805 75.8906C99.4805 76.0469 99.4674 76.2031 99.4414 76.3594C99.4414 76.5156 99.4544 76.6719 99.4805 76.8281V77.2969C99.4805 77.5052 99.4544 77.7005 99.4023 77.8828C99.3763 78.0651 99.3633 78.2604 99.3633 78.4688C99.3372 78.9375 99.2591 79.3932 99.1289 79.8359C99.1029 80.1224 99.0768 80.2656 99.0508 80.2656C99.0247 80.2396 99.0117 80.2526 99.0117 80.3047C98.9596 80.5911 98.9206 80.8646 98.8945 81.125C98.8685 81.3854 98.8294 81.6589 98.7773 81.9453C99.2461 81.9974 99.7799 82.0625 100.379 82.1406C101.004 82.1927 101.59 82.1927 102.137 82.1406C102.267 82.1146 102.384 82.0755 102.488 82.0234C102.618 81.9714 102.749 81.9193 102.879 81.8672C103.322 81.8151 103.673 81.7109 103.934 81.5547C104.194 81.3984 104.507 81.2682 104.871 81.1641C104.767 81.4505 104.637 81.6198 104.48 81.6719C104.402 81.9323 104.324 82.1146 104.246 82.2188C104.194 82.2969 104.129 82.362 104.051 82.4141C103.921 82.5182 103.803 82.6094 103.699 82.6875C103.595 82.7396 103.478 82.8177 103.348 82.9219C102.931 83.1562 102.592 83.2865 102.332 83.3125C102.098 83.3125 101.876 83.3516 101.668 83.4297C101.486 83.4036 101.264 83.3776 101.004 83.3516C100.77 83.3255 100.561 83.3255 100.379 83.3516C100.249 83.2734 100.105 83.2344 99.9492 83.2344C99.793 83.2344 99.6367 83.2604 99.4805 83.3125C99.168 83.4167 98.9596 83.4948 98.8555 83.5469C98.7513 83.5729 98.6471 83.612 98.543 83.6641C98.4909 83.8203 98.4518 83.9375 98.4258 84.0156C98.4258 84.0938 98.4128 84.1589 98.3867 84.2109C98.3607 84.4974 98.3346 84.7839 98.3086 85.0703C98.3086 85.3307 98.2695 85.6042 98.1914 85.8906C98.0872 86.125 98.0352 86.2812 98.0352 86.3594C98.0352 86.4115 98.0091 86.4896 97.957 86.5938C97.8789 86.724 97.8138 86.8802 97.7617 87.0625C97.7096 87.2448 97.6576 87.4271 97.6055 87.6094C97.4753 87.7396 97.3971 87.8958 97.3711 88.0781C97.3451 88.2604 97.319 88.4557 97.293 88.6641C97.2669 88.8724 97.2018 89.0807 97.0977 89.2891C96.9935 89.4714 96.8893 89.6536 96.7852 89.8359C96.7331 89.9661 96.681 90.0964 96.6289 90.2266C96.5768 90.3307 96.5117 90.4479 96.4336 90.5781C96.1211 90.9688 95.8216 91.3854 95.5352 91.8281C95.4049 92.1146 95.2617 92.375 95.1055 92.6094C94.9753 92.8177 94.8451 93.0521 94.7148 93.3125C94.5065 93.6771 94.2461 94.0026 93.9336 94.2891C93.6211 94.5495 93.3086 94.8229 92.9961 95.1094C92.8398 95.2396 92.6836 95.3828 92.5273 95.5391C92.3711 95.6953 92.2279 95.8385 92.0977 95.9688C91.9674 96.099 91.8242 96.2422 91.668 96.3984C91.5378 96.5286 91.4076 96.6589 91.2773 96.7891C91.0951 96.9193 90.8997 97.0625 90.6914 97.2188C90.5091 97.349 90.3138 97.4792 90.1055 97.6094C89.6888 97.8438 89.2721 98.0651 88.8555 98.2734C88.4648 98.4818 88.0482 98.7161 87.6055 98.9766C87.3971 99.1068 87.2018 99.224 87.0195 99.3281C86.8372 99.4583 86.6419 99.5625 86.4336 99.6406C86.2773 99.6927 86.1081 99.7188 85.9258 99.7188C85.7695 99.7448 85.6133 99.7708 85.457 99.7969C85.2487 99.849 85.0534 99.888 84.8711 99.9141C84.6888 99.9661 84.4805 99.9922 84.2461 99.9922C83.9596 99.9661 83.6341 99.901 83.2695 99.7969C82.931 99.7188 82.6706 99.6146 82.4883 99.4844C82.1497 99.1719 81.9414 98.9505 81.8633 98.8203C81.8112 98.6901 81.7201 98.5599 81.5898 98.4297C81.5638 98.3255 81.5247 98.2474 81.4727 98.1953C81.4466 98.1693 81.4336 98.1042 81.4336 98C81.2513 97.7396 81.1081 97.4792 81.0039 97.2188C80.7695 96.724 80.6003 96.2943 80.4961 95.9297C80.418 95.5391 80.4049 95.1354 80.457 94.7188C80.4049 94.3021 80.3789 93.8333 80.3789 93.3125C80.3789 92.7656 80.3789 92.2448 80.3789 91.75C80.3789 91.5677 80.3659 91.3984 80.3398 91.2422C80.3398 91.0599 80.3659 90.9036 80.418 90.7734C80.3919 90.5651 80.3659 90.3698 80.3398 90.1875C80.3398 89.9792 80.3659 89.7969 80.418 89.6406C80.444 89.3802 80.457 89.1849 80.457 89.0547C80.4831 88.9245 80.5221 88.7943 80.5742 88.6641C80.7044 88.5339 80.7565 88.4036 80.7305 88.2734C80.7305 88.1432 80.7565 88.013 80.8086 87.8828C80.9128 87.1797 81.082 86.5547 81.3164 86.0078C81.3945 85.7995 81.4727 85.6042 81.5508 85.4219C81.6289 85.2135 81.694 85.0052 81.7461 84.7969C81.9023 84.3542 82.0716 83.9505 82.2539 83.5859C82.4622 83.2214 82.6576 82.8307 82.8398 82.4141C83.2044 81.6589 83.582 80.9688 83.9727 80.3438C84.3893 79.6927 84.806 79.0286 85.2227 78.3516C85.3529 78.2734 85.444 78.1693 85.4961 78.0391C85.5482 77.8828 85.6263 77.7656 85.7305 77.6875C85.9388 77.2448 86.1862 76.8672 86.4727 76.5547C86.7591 76.2422 87.0456 75.9297 87.332 75.6172C87.4622 75.513 87.5794 75.4089 87.6836 75.3047C87.7878 75.1745 87.9049 75.0443 88.0352 74.9141C88.1133 74.8359 88.1914 74.7708 88.2695 74.7188C88.3737 74.6406 88.4518 74.5495 88.5039 74.4453C88.6081 74.3932 88.6992 74.3281 88.7773 74.25C88.8815 74.1719 88.9727 74.0938 89.0508 74.0156C89.1549 73.9375 89.2591 73.8594 89.3633 73.7812C89.4674 73.7031 89.5716 73.625 89.6758 73.5469C89.8841 73.3906 90.0664 73.2344 90.2227 73.0781C90.4049 72.8958 90.6003 72.7396 90.8086 72.6094C91.0169 72.5833 91.1471 72.5703 91.1992 72.5703C91.2513 72.5703 91.2773 72.5312 91.2773 72.4531C91.5898 72.1927 91.7852 72.0104 91.8633 71.9062C91.9674 71.776 92.0586 71.6458 92.1367 71.5156C92.3451 71.3854 92.5273 71.2422 92.6836 71.0859C92.8398 70.9036 93.0221 70.7474 93.2305 70.6172C93.3867 70.4349 93.4909 70.3177 93.543 70.2656C93.6211 70.2135 93.6992 70.1615 93.7773 70.1094C93.8294 70.0312 93.8815 69.9792 93.9336 69.9531C94.0117 69.901 94.0638 69.849 94.0898 69.7969C94.2201 69.7448 94.3372 69.6927 94.4414 69.6406C94.5456 69.5625 94.6758 69.4974 94.832 69.4453C95.0143 69.4714 95.1576 69.4714 95.2617 69.4453C95.3919 69.4193 95.5091 69.4193 95.6133 69.4453C95.7695 69.4714 95.8867 69.5365 95.9648 69.6406C96.069 69.7188 96.1862 69.8099 96.3164 69.9141C96.6289 69.9661 96.8633 70.1354 97.0195 70.4219C97.2018 70.6823 97.3971 70.8776 97.6055 71.0078C97.7357 71.2161 97.8789 71.4245 98.0352 71.6328C98.2174 71.8151 98.3737 72.0234 98.5039 72.2578H98.6602ZM95.6133 79.7188C95.7435 79.901 95.8997 80.0703 96.082 80.2266C96.2643 80.3568 96.4466 80.487 96.6289 80.6172C96.6289 79.9401 96.6549 79.2109 96.707 78.4297C96.7852 77.6224 96.7982 76.8802 96.7461 76.2031C96.668 75.9167 96.5768 75.6432 96.4727 75.3828C96.3945 75.1224 96.3294 74.8359 96.2773 74.5234C96.1732 74.4193 96.0951 74.3151 96.043 74.2109C96.0169 74.1068 95.9779 74.0026 95.9258 73.8984C95.7956 73.7422 95.7305 73.651 95.7305 73.625C95.7305 73.5729 95.7044 73.5208 95.6523 73.4688C95.6003 73.4167 95.5352 73.3646 95.457 73.3125C95.4049 73.2604 95.3529 73.1953 95.3008 73.1172C94.9883 73.0911 94.7279 73.1562 94.5195 73.3125C94.3372 73.4427 94.1549 73.5729 93.9727 73.7031C93.9206 74.0677 93.9076 74.4062 93.9336 74.7188C93.9596 75.0312 93.9987 75.3307 94.0508 75.6172C94.1289 76.112 94.207 76.6068 94.2852 77.1016C94.3633 77.5964 94.4935 78.026 94.6758 78.3906C94.7018 78.5729 94.806 78.7943 94.9883 79.0547C95.1706 79.2891 95.3789 79.5104 95.6133 79.7188ZM90.3789 76.3203C90.2487 76.4505 90.1185 76.5677 89.9883 76.6719C89.8581 76.776 89.7409 76.9062 89.6367 77.0625C89.4805 77.1927 89.3503 77.3229 89.2461 77.4531C89.1419 77.5833 89.0247 77.7135 88.8945 77.8438C88.7643 77.974 88.6471 78.1042 88.543 78.2344C88.4388 78.3385 88.3346 78.4688 88.2305 78.625C88.1523 78.6771 88.0872 78.7422 88.0352 78.8203C87.9831 78.8984 87.918 78.9766 87.8398 79.0547C87.5794 79.3932 87.3971 79.6276 87.293 79.7578C87.1888 79.888 87.1107 80.0182 87.0586 80.1484C86.9023 80.2526 86.7721 80.3958 86.668 80.5781C86.5898 80.7344 86.5117 80.9036 86.4336 81.0859C86.2773 81.2943 86.1341 81.5156 86.0039 81.75C85.8737 81.9844 85.7565 82.2188 85.6523 82.4531C85.444 82.8177 85.3138 83.0651 85.2617 83.1953C85.2357 83.3255 85.1966 83.4557 85.1445 83.5859C85.0404 83.7422 84.9492 83.9505 84.8711 84.2109C84.4284 85.1484 84.0378 86.2161 83.6992 87.4141C83.6471 87.6484 83.569 87.8698 83.4648 88.0781C83.3867 88.2865 83.3346 88.4948 83.3086 88.7031C83.2826 88.8073 83.2695 88.9115 83.2695 89.0156C83.2956 89.1198 83.3086 89.224 83.3086 89.3281C83.2826 89.5885 83.2565 89.849 83.2305 90.1094C83.2044 90.3438 83.1914 90.6042 83.1914 90.8906C83.1914 91.4115 83.1914 91.8932 83.1914 92.3359C83.1914 92.7786 83.2174 93.2344 83.2695 93.7031C83.2695 94.0417 83.2956 94.3151 83.3477 94.5234C83.3997 94.6276 83.4909 94.7318 83.6211 94.8359C83.7513 94.9401 83.8685 95.0312 83.9727 95.1094C84.181 95.3177 84.3893 95.5391 84.5977 95.7734C84.806 95.9818 85.0924 96.0208 85.457 95.8906C85.5872 95.9688 85.7305 95.9688 85.8867 95.8906C86.043 95.8125 86.1992 95.7995 86.3555 95.8516C86.4857 95.7995 86.6159 95.7734 86.7461 95.7734C86.8763 95.7474 87.0065 95.7083 87.1367 95.6562C87.3451 95.6042 87.5404 95.5521 87.7227 95.5C87.931 95.4219 88.1263 95.3568 88.3086 95.3047C88.5169 95.2266 88.7253 95.1615 88.9336 95.1094C89.1419 95.0312 89.3372 94.9401 89.5195 94.8359C90.0404 94.3932 90.418 94.0417 90.6523 93.7812C90.8346 93.599 91.0169 93.4427 91.1992 93.3125C91.3815 93.1562 91.5508 93 91.707 92.8438C91.8372 92.7135 91.9674 92.5833 92.0977 92.4531C92.2279 92.2969 92.3451 92.1146 92.4492 91.9062C92.5273 91.8281 92.5924 91.75 92.6445 91.6719C92.7227 91.5677 92.7878 91.4635 92.8398 91.3594C92.9701 91.2031 93.0612 91.0339 93.1133 90.8516C93.1914 90.6693 93.2956 90.487 93.4258 90.3047C93.582 89.862 93.7643 89.4453 93.9727 89.0547C94.181 88.6641 94.3503 88.2604 94.4805 87.8438C94.7148 87.349 94.9102 86.9193 95.0664 86.5547C95.2487 86.1641 95.3789 85.7734 95.457 85.3828C95.5352 85.3047 95.5742 85.2135 95.5742 85.1094C95.6003 84.9792 95.6393 84.875 95.6914 84.7969C95.8216 84.4323 95.9258 84.0807 96.0039 83.7422C96.1081 83.4036 96.2122 83.026 96.3164 82.6094C96.2122 82.5573 96.1211 82.5443 96.043 82.5703C95.9648 82.5703 95.8867 82.5443 95.8086 82.4922C95.6003 82.4141 95.4049 82.2839 95.2227 82.1016C95.0664 81.8932 94.8841 81.776 94.6758 81.75C94.5716 81.6719 94.4805 81.6068 94.4023 81.5547C94.3503 81.5026 94.2721 81.4505 94.168 81.3984C93.7513 80.9557 93.3477 80.5 92.957 80.0312C92.5924 79.5365 92.293 78.9896 92.0586 78.3906C91.8242 77.8698 91.6419 77.388 91.5117 76.9453C91.3815 76.4766 91.2643 75.9818 91.1602 75.4609C91.0039 75.6172 90.8607 75.7604 90.7305 75.8906C90.6263 76.0208 90.5091 76.1641 90.3789 76.3203Z" fill="#4D4D4D"/>
</svg>
